<svg xmlns="http://www.w3.org/2000/svg" xmlns:xlink="http://www.w3.org/1999/xlink" viewBox="0 0 280.19 82.37"><defs><style>.cls-1{fill:url(#linear-gradient);}.cls-2{fill:url(#linear-gradient-2);}.cls-3{fill:url(#linear-gradient-3);}.cls-4{fill:url(#linear-gradient-4);}.cls-5{fill:url(#linear-gradient-5);}.cls-6{fill:url(#linear-gradient-6);}.cls-7{fill:url(#linear-gradient-7);}.cls-8{fill:url(#linear-gradient-8);}.cls-9{fill:url(#linear-gradient-9);}</style><linearGradient id="linear-gradient" y1="41.18" x2="109.69" y2="41.18" gradientUnits="userSpaceOnUse"><stop offset="0" stop-color="#fff"/><stop offset="0" stop-color="#1d71b8"/><stop offset="1" stop-color="#312783"/></linearGradient><linearGradient id="linear-gradient-2" x1="107.55" y1="-0.61" x2="122.54" y2="-9.22" gradientTransform="translate(-1.18 25.64) rotate(-6.75)" gradientUnits="userSpaceOnUse"><stop offset="0" stop-color="#1d71b8"/><stop offset="1" stop-color="#312783"/></linearGradient><linearGradient id="linear-gradient-3" x1="65.59" y1="30.84" x2="57.57" y2="11.96" gradientUnits="userSpaceOnUse"><stop offset="0" stop-color="#fff"/><stop offset="0" stop-color="#312783"/><stop offset="1" stop-color="#1d71b8" stop-opacity="0"/></linearGradient><linearGradient id="linear-gradient-4" x1="42.06" y1="55.93" x2="43.48" y2="62.53" gradientUnits="userSpaceOnUse"><stop offset="0" stop-color="#312783"/><stop offset="0.68" stop-color="#2459a7" stop-opacity="0.33"/><stop offset="1" stop-color="#1d71b8" stop-opacity="0"/></linearGradient><linearGradient id="linear-gradient-5" x1="86.38" y1="71.68" x2="124.81" y2="49.61" gradientTransform="matrix(1, 0, 0, 1, 0, 0)" xlink:href="#linear-gradient-2"/><linearGradient id="linear-gradient-6" x1="124.05" y1="69.06" x2="158.29" y2="49.4" gradientTransform="matrix(1, 0, 0, 1, 0, 0)" xlink:href="#linear-gradient-2"/><linearGradient id="linear-gradient-7" x1="156.64" y1="72.01" x2="201.16" y2="46.44" gradientTransform="matrix(1, 0, 0, 1, 0, 0)" xlink:href="#linear-gradient-2"/><linearGradient id="linear-gradient-8" x1="204.53" y1="70.47" x2="227.2" y2="57.45" gradientTransform="matrix(1, 0, 0, 1, 0, 0)" xlink:href="#linear-gradient-2"/><linearGradient id="linear-gradient-9" x1="241.78" y1="74.44" x2="281.24" y2="51.77" gradientTransform="matrix(1, 0, 0, 1, 0, 0)" xlink:href="#linear-gradient-2"/></defs><g id="Layer_2" data-name="Layer 2"><g id="Layer_1-2" data-name="Layer 1"><path class="cls-1" d="M.69,79h0A6.27,6.27,0,0,0,8.3,82c14.45-4.93,54.8-20.9,65.09-48.26a45.35,45.35,0,0,0,2.3-9,27.79,27.79,0,0,0-2.51-14.15C67.17-.88,42-4.25,24.66,6.56,11.78,14.61,1.93,41.4,24.21,53.94s85.66-33.45,85.48-35.3-6.58-12.85-6.58-12.85-38.83,33.32-69,34.11a6.24,6.24,0,0,1-5.3-2.65c-2.2-3.17-4.42-9.18.41-18.1a6.17,6.17,0,0,1,3.4-2.87c6.67-2.33,26-7.42,21.46,13.83C49.89,50,17.93,64.72,4,70.26A6.26,6.26,0,0,0,.69,79Z"/><path class="cls-2" d="M121.25,2.92l-7.91,18.41a2.09,2.09,0,0,1-3.6.43l-12-16a2.1,2.1,0,0,1,1.43-3.34L119.08,0A2.09,2.09,0,0,1,121.25,2.92Z"/><path class="cls-3" d="M75.64,25.15A139.89,139.89,0,0,1,51.82,36.42s6.33-12.66.62-19.45L70,6.68S76.33,11.12,75.64,25.15Z"/><path class="cls-4" d="M66,46.52S45.5,57.23,32,56.05a146.57,146.57,0,0,1-14.12,8L32.2,72S54.35,61.62,66,46.52Z"/><path class="cls-5" d="M120,80.22l-9.59-13.49a30,30,0,0,1-3.36.17H95.73V80.22H91.29v-42H107c10.67,0,17.15,5.4,17.15,14.4,0,6.6-3.48,11.22-9.59,13.2l10.25,14.39Zm-.24-27.59c0-6.72-4.43-10.56-12.83-10.56H95.73V63.13h11.16C115.29,63.13,119.72,59.23,119.72,52.63Z"/><path class="cls-6" d="M143.36,42.07V76.38h8.52v3.84H130.46V76.38H139V42.07h-8.52V38.23h21.42v3.84Z"/><path class="cls-7" d="M196.45,38.23v42h-4.38V60.85H165.8V80.22h-4.44v-42h4.44V57h26.27V38.23Z"/><path class="cls-8" d="M210.13,38.23h4.43V76.38h23.52v3.84h-28Z"/><path class="cls-9" d="M280.19,56.41V80.22h-4.38V67.86H249.42V80.22H245.1V56.41c0-12.3,7-18.54,17.51-18.54S280.19,44.11,280.19,56.41ZM275.81,64V56c0-9.54-5-14.16-13.2-14.16S249.42,46.45,249.42,56v8Z"/></g></g></svg>